<svg width="18" height="18" viewBox="0 0 18 18" fill="none" xmlns="http://www.w3.org/2000/svg">
<path d="M8.99994 0.75C7.36825 0.75 5.77319 1.23385 4.41649 2.14038C3.05978 3.0469 2.00236 4.33537 1.37794 5.84286C0.753514 7.35036 0.590136 9.00916 0.908464 10.6095C1.22679 12.2098 2.01253 13.6799 3.16631 14.8336C4.3201 15.9874 5.7901 16.7732 7.39045 17.0915C8.99079 17.4098 10.6496 17.2464 12.1571 16.622C13.6646 15.9976 14.953 14.9402 15.8596 13.5835C16.7661 12.2268 17.2499 10.6317 17.2499 9.00001C17.2474 6.81276 16.3773 4.71584 14.8307 3.16922C13.2841 1.6226 11.1872 0.75258 8.99994 0.75ZM11.7802 11.7803C11.6395 11.9209 11.4488 11.9998 11.2499 11.9998C11.0511 11.9998 10.8603 11.9209 10.7197 11.7803L8.46969 9.53026C8.32903 9.38964 8.24999 9.1989 8.24994 9.00001V4.5C8.24994 4.30109 8.32896 4.11032 8.46961 3.96967C8.61026 3.82902 8.80103 3.75 8.99994 3.75C9.19885 3.75 9.38962 3.82902 9.53027 3.96967C9.67093 4.11032 9.74994 4.30109 9.74994 4.5V8.68951L11.7802 10.7198C11.9208 10.8604 11.9998 11.0511 11.9998 11.25C11.9998 11.4489 11.9208 11.6396 11.7802 11.7803Z" fill="#2B89F8"/>
</svg>
