<svg width="22" height="22" viewBox="0 0 22 22" fill="none" xmlns="http://www.w3.org/2000/svg">
<g clip-path="url(#clip0)">
<path d="M2.11157 7.68541C2.38986 7.88179 3.22875 8.46504 4.62828 9.43487C6.02785 10.4047 7.10001 11.1514 7.84482 11.6751C7.92665 11.7325 8.1005 11.8573 8.36645 12.0497C8.63245 12.2421 8.85347 12.3977 9.02934 12.5163C9.20534 12.6349 9.41811 12.7679 9.66785 12.9152C9.91751 13.0624 10.1529 13.173 10.3738 13.2463C10.5949 13.3202 10.7994 13.3568 10.9877 13.3568H11H11.0124C11.2006 13.3568 11.4053 13.3201 11.6263 13.2463C11.8472 13.173 12.0827 13.0622 12.3322 12.9152C12.5818 12.7678 12.7945 12.6349 12.9705 12.5163C13.1465 12.3977 13.3674 12.2421 13.6335 12.0497C13.8994 11.8572 14.0734 11.7325 14.1553 11.6751C14.9081 11.1514 16.8235 9.8214 19.9007 7.68515C20.4982 7.26792 20.9973 6.76447 21.3983 6.17515C21.7996 5.5861 22 4.96814 22 4.32163C22 3.78138 21.8055 3.31891 21.4167 2.93428C21.0279 2.54955 20.5675 2.3573 20.0357 2.3573H1.9642C1.33404 2.3573 0.849081 2.57006 0.509423 2.99559C0.169808 3.42121 0 3.95321 0 4.59155C0 5.10716 0.225149 5.6659 0.675231 6.26743C1.12527 6.86901 1.60421 7.34171 2.11157 7.68541Z" fill="#F5F5F5"/>
<path d="M20.7722 8.99882C18.0879 10.8156 16.0497 12.2276 14.6585 13.2344C14.192 13.578 13.8136 13.8462 13.5229 14.0384C13.2323 14.2308 12.8458 14.4272 12.3628 14.6276C11.88 14.8284 11.43 14.9284 11.0125 14.9284H11H10.9877C10.5703 14.9284 10.1201 14.8284 9.63727 14.6276C9.15447 14.4272 8.76768 14.2308 8.47713 14.0384C8.18666 13.8462 7.80809 13.578 7.34163 13.2344C6.23665 12.4242 4.20283 11.0121 1.24008 8.99882C0.773443 8.68802 0.360126 8.33176 0 7.93079V17.6783C0 18.2188 0.192254 18.681 0.576976 19.0657C0.961612 19.4505 1.42412 19.6428 1.96433 19.6428H20.0358C20.5759 19.6428 21.0384 19.4505 21.423 19.0657C21.8079 18.6809 22 18.2188 22 17.6783V7.93079C21.648 8.32346 21.2389 8.67972 20.7722 8.99882Z" fill="#F5F5F5"/>
</g>
<defs>
<clipPath id="clip0">
<rect width="22" height="22" fill="white"/>
</clipPath>
</defs>
</svg>
