<svg width="59" height="68" viewBox="0 0 59 68" fill="none" xmlns="http://www.w3.org/2000/svg">
<path fill-rule="evenodd" clip-rule="evenodd" d="M29.5 68C45.7924 68 59 54.7293 59 38.359C59 21.9887 45.7924 8.71795 29.5 8.71795C13.2076 8.71795 0 21.9887 0 38.359C0 54.7293 13.2076 68 29.5 68ZM29.5 52.3077C37.167 52.3077 43.3824 46.0626 43.3824 38.359C43.3824 30.6553 37.167 24.4103 29.5 24.4103C21.833 24.4103 15.6176 30.6553 15.6176 38.359C15.6176 46.0626 21.833 52.3077 29.5 52.3077Z" fill="white"/>
<path d="M15.6176 0H0V19.9801C3.69632 14.0029 9.14181 9.23176 15.6176 6.38882V0Z" fill="white"/>
</svg>
