<svg width="21" height="19" viewBox="0 0 21 19" fill="none" xmlns="http://www.w3.org/2000/svg">
<path d="M9.60326 0.816987C9.97008 0.0737412 11.0299 0.0737398 11.3967 0.816985L13.6471 5.37671C13.7928 5.67185 14.0743 5.87642 14.4 5.92375L19.432 6.65494C20.2522 6.77412 20.5797 7.78209 19.9862 8.36063L16.345 11.9099C16.1094 12.1396 16.0018 12.4706 16.0574 12.795L16.917 17.8066C17.0571 18.6235 16.1997 19.2465 15.4661 18.8608L10.9653 16.4946C10.674 16.3415 10.326 16.3415 10.0347 16.4946L5.53394 18.8608C4.80032 19.2465 3.94288 18.6235 4.08299 17.8066L4.94255 12.795C4.99819 12.4706 4.89064 12.1396 4.65496 11.9099L1.0138 8.36063C0.420283 7.78209 0.747792 6.77412 1.56801 6.65494L6.59997 5.92375C6.92568 5.87642 7.20724 5.67185 7.35291 5.37671L9.60326 0.816987Z" fill="#FFA800"/>
</svg>
