<svg width="23" height="23" viewBox="0 0 23 23" fill="none" xmlns="http://www.w3.org/2000/svg">
<path opacity="0.4" d="M10.6033 1.81699C10.9701 1.07374 12.0299 1.07374 12.3967 1.81699L14.6471 6.37671C14.7928 6.67185 15.0743 6.87642 15.4 6.92375L20.432 7.65494C21.2522 7.77412 21.5797 8.78209 20.9862 9.36063L17.345 12.9099C17.1094 13.1396 17.0018 13.4706 17.0574 13.795L17.917 18.8066C18.0571 19.6235 17.1997 20.2465 16.4661 19.8608L11.9653 17.4946C11.674 17.3415 11.326 17.3415 11.0347 17.4946L6.53394 19.8608C5.80032 20.2465 4.94288 19.6235 5.08299 18.8066L5.94255 13.795C5.99819 13.4706 5.89064 13.1396 5.65496 12.9099L2.0138 9.36063C1.42028 8.78209 1.74779 7.77412 2.56801 7.65494L7.59997 6.92375C7.92568 6.87642 8.20724 6.67185 8.35291 6.37671L10.6033 1.81699Z" fill="#CBCBCB"/>
<path fill-rule="evenodd" clip-rule="evenodd" d="M11.9998 1.39102C11.5306 1.1229 10.8757 1.26489 10.6032 1.81699L8.35288 6.37671C8.20722 6.67185 7.92565 6.87642 7.59994 6.92375L2.56799 7.65494C1.74777 7.77412 1.42026 8.7821 2.01377 9.36063L5.65493 12.9099C5.89062 13.1396 5.99817 13.4706 5.94253 13.795L5.08297 18.8066C4.94286 19.6235 5.80029 20.2465 6.53392 19.8608L11.0346 17.4946C11.326 17.3415 11.674 17.3415 11.9653 17.4946L11.9998 17.5128V1.39102Z" fill="#FFA800"/>
</svg>
