<svg width="22" height="22" viewBox="0 0 22 22" fill="none" xmlns="http://www.w3.org/2000/svg">
<path d="M20.6491 15.5375C20.6133 15.5066 16.4959 12.551 15.3766 12.7538C14.8397 12.8494 14.5331 13.2151 13.9184 13.9466C13.8194 14.0649 13.5816 14.3481 13.3966 14.5496C13.0078 14.4227 12.6285 14.2683 12.2616 14.0876C10.3679 13.1656 8.83781 11.6356 7.91587 9.74187C7.73497 9.37504 7.58057 8.99571 7.45388 8.60681C7.656 8.42119 7.93925 8.18331 8.06025 8.08156C8.789 7.46969 9.15544 7.16306 9.25031 6.62544C9.44487 5.51169 6.49687 1.39081 6.46594 1.35369C6.33211 1.16274 6.15753 1.00391 5.9548 0.888701C5.75208 0.773488 5.52629 0.704764 5.29375 0.6875C4.09887 0.6875 0.6875 5.11294 0.6875 5.85819C0.6875 5.9015 0.750063 10.3042 6.17925 15.8269C11.6964 21.2499 16.0985 21.3125 16.1418 21.3125C16.8871 21.3125 21.3125 17.9011 21.3125 16.7062C21.2953 16.4745 21.2269 16.2494 21.1122 16.0473C20.9975 15.8452 20.8393 15.671 20.6491 15.5375Z" fill="#F5F5F5"/>
<path d="M11.6875 6.1875C12.7812 6.18859 13.8298 6.62354 14.6031 7.39689C15.3765 8.17024 15.8114 9.21882 15.8125 10.3125C15.8125 10.4948 15.8849 10.6697 16.0139 10.7986C16.1428 10.9276 16.3177 11 16.5 11C16.6823 11 16.8572 10.9276 16.9861 10.7986C17.1151 10.6697 17.1875 10.4948 17.1875 10.3125C17.1859 8.85431 16.6059 7.45632 15.5748 6.42522C14.5437 5.39413 13.1457 4.81414 11.6875 4.8125C11.5052 4.8125 11.3303 4.88493 11.2014 5.01386C11.0724 5.1428 11 5.31766 11 5.5C11 5.68234 11.0724 5.8572 11.2014 5.98614C11.3303 6.11507 11.5052 6.1875 11.6875 6.1875Z" fill="#F5F5F5"/>
<path d="M11.6875 2.75C13.6925 2.75237 15.6147 3.54989 17.0324 4.96762C18.4501 6.38535 19.2476 8.30753 19.25 10.3125C19.25 10.4948 19.3224 10.6697 19.4514 10.7986C19.5803 10.9276 19.7552 11 19.9375 11C20.1198 11 20.2947 10.9276 20.4236 10.7986C20.5526 10.6697 20.625 10.4948 20.625 10.3125C20.6223 7.94297 19.6798 5.67126 18.0043 3.99575C16.3287 2.32023 14.057 1.37773 11.6875 1.375C11.5052 1.375 11.3303 1.44743 11.2014 1.57636C11.0724 1.7053 11 1.88016 11 2.0625C11 2.24484 11.0724 2.4197 11.2014 2.54864C11.3303 2.67757 11.5052 2.75 11.6875 2.75Z" fill="#F5F5F5"/>
</svg>
