<svg width="30" height="30" viewBox="0 0 30 30" fill="none" xmlns="http://www.w3.org/2000/svg">
<path fill-rule="evenodd" clip-rule="evenodd" d="M15 30C23.2843 30 30 23.2843 30 15C30 6.71573 23.2843 0 15 0C6.71573 0 0 6.71573 0 15C0 23.2843 6.71573 30 15 30ZM15.1251 8.4857C15.1532 8.04955 15.4732 8.06733 15.7445 8.0824C15.8264 8.08695 15.9039 8.09126 15.9676 8.08277C19.4108 8.19266 22.3778 11.2879 22.3412 14.6212C22.3412 14.6708 22.3437 14.7236 22.3462 14.7777V14.7778C22.3606 15.0833 22.3767 15.4271 21.9566 15.4271C21.5914 15.4271 21.5817 15.1362 21.5722 14.8519V14.8519C21.5693 14.7655 21.5665 14.6797 21.5537 14.6029C21.0958 11.0681 19.4474 9.40145 15.8577 8.852C15.8054 8.84546 15.7479 8.84184 15.6888 8.83812C15.4164 8.82098 15.11 8.8017 15.1251 8.4857ZM20.2716 14.7677C19.8329 14.8262 19.8145 14.5345 19.797 14.256C19.7925 14.1857 19.7882 14.1162 19.7771 14.0535C19.4108 11.8923 18.6416 11.1047 16.4254 10.6286C16.3612 10.6143 16.2899 10.6049 16.2176 10.5953C15.9188 10.5558 15.6008 10.5138 15.6745 10.1157C15.736 9.71595 16.0686 9.76798 16.3797 9.81665L16.3798 9.81666C16.4392 9.82596 16.4978 9.83513 16.5537 9.84101C18.7698 10.0974 20.583 11.9839 20.5646 14.0535C20.5556 14.1078 20.5577 14.1744 20.56 14.245C20.5669 14.4602 20.575 14.7126 20.2716 14.7677ZM18.898 13.6322C18.898 13.9253 18.8613 14.2 18.5317 14.2366C18.2936 14.2732 18.1471 14.0718 18.1104 13.8337C18.0189 12.9546 17.5427 12.4234 16.6269 12.2769C16.3522 12.2403 16.0958 12.1487 16.224 11.7824C16.3156 11.5443 16.5353 11.5077 16.7734 11.5077C17.7624 11.4894 18.898 12.6432 18.898 13.6322ZM22.3778 20.3905C21.9932 21.4344 20.6928 22.4967 19.5756 22.4784C19.5484 22.4723 19.5171 22.4658 19.4826 22.4585L19.4826 22.4585C19.3088 22.4221 19.054 22.3686 18.8247 22.2769C13.9163 20.2073 10.3449 16.8007 8.33021 11.9289C7.65255 10.2989 8.36684 8.90694 10.0701 8.35749C10.3815 8.2476 10.6745 8.2476 10.9859 8.35749C11.7185 8.6139 13.5683 11.1231 13.6049 11.8557C13.6416 12.4234 13.2386 12.7348 12.854 12.9912C12.1031 13.4857 12.1031 14.1084 12.4328 14.8227C13.1471 16.3978 14.3742 17.4967 15.9676 18.1927C16.5353 18.4491 17.1031 18.4308 17.4877 17.8447C18.1837 16.8007 19.0445 16.8557 19.9786 17.4967C20.0874 17.572 20.1963 17.6464 20.3047 17.7205L20.3053 17.7209C20.6709 17.9709 21.0316 18.2174 21.3705 18.4857C21.4483 18.5494 21.5288 18.6115 21.6093 18.6736C22.1541 19.094 22.697 19.5128 22.3778 20.3905Z" fill="#56A4FF"/>
</svg>
