<svg width="30" height="30" viewBox="0 0 30 30" fill="none" xmlns="http://www.w3.org/2000/svg">
<path fill-rule="evenodd" clip-rule="evenodd" d="M15 30C23.2843 30 30 23.2843 30 15C30 6.71573 23.2843 0 15 0C6.71573 0 0 6.71573 0 15C0 23.2843 6.71573 30 15 30ZM18.0375 10.0812C20.0174 10.0812 21.0541 10.3534 21.6156 11.0209C22.1797 11.6914 22.2219 12.7183 22.2219 14.2083V16.9014C22.2219 18.6089 21.9526 19.5952 21.3214 20.1992C20.7059 20.7883 19.7545 21.0285 18.0376 21.0285H10.8506C7.31349 21.0285 6.66638 19.6387 6.66638 16.9014V14.2083C6.66638 12.7954 6.66638 11.7745 7.21178 11.0816C7.77117 10.371 8.82544 10.0812 10.8506 10.0812H18.0375ZM13.3895 17.6323L16.6531 15.9267C16.8189 15.8401 16.9227 15.6684 16.9225 15.4812C16.9223 15.2942 16.818 15.1228 16.6519 15.0366L13.3884 13.3419C13.2329 13.2612 13.0465 13.2674 12.8966 13.3584C12.7467 13.4494 12.6553 13.612 12.6553 13.7872V17.1876C12.6553 17.3631 12.747 17.5258 12.8971 17.6168C12.9769 17.6651 13.0669 17.6894 13.1571 17.6894C13.2368 17.6894 13.3166 17.6705 13.3895 17.6323Z" fill="#56A4FF"/>
</svg>
